<svg xmlns="http://www.w3.org/2000/svg" viewBox="0 0 100 100"><defs/><path d="M50 0Q39.7 0 30.6 4q-9.1 3.9-16 10.7Q8 21.5 4 30.6 0 39.6 0 50q0 10.3 4 19.4 3.9 9.1 10.7 16Q21.5 92 30.6 96q9 3.9 19.4 3.9 10.3 0 19.4-4 9.1-3.9 16-10.7Q92 78.5 96 69.4q3.9-9 3.9-19.4 0-10.3-4-19.4-3.9-9.1-10.7-16Q78.5 8 69.4 4 60.4 0 50 0zm0 92.3q-8.8 0-16.5-3.3-7.7-3.4-13.4-9.1-5.7-5.8-9-13.5Q7.6 58.8 7.6 50q0-8.8 3.3-16.5 3.4-7.7 9-13.4 5.8-5.7 13.5-9Q41.2 7.6 50 7.6T66.4 11q7.7 3.4 13.5 9 5.7 5.8 9 13.5 3.4 7.7 3.4 16.5T89 66.4q-3.4 7.7-9.1 13.5-5.8 5.7-13.5 9-7.6 3.4-16.4 3.4zM46 54H29.3q-1.6 0-2-1-.4-1.2-.4-2.9t.4-2.9q.4-1.1 2-1.1h41.4q1.6 0 2 1.1.3 1.2.3 2.9t-.3 2.8q-.4 1.1-2 1.1z"/></svg>