<svg xmlns="http://www.w3.org/2000/svg" viewBox="0 0 100 100"><defs/><path d="M50 0Q39.6 0 30.5 4q-9.1 3.8-15.9 10.7Q8 21.5 4 30.6 0 39.7 0 50q0 10.3 4 19.4 3.9 9.1 10.6 16 6.8 6.8 16 10.7 9 3.9 19.4 3.9 10.4 0 19.5-4 9.1-3.8 15.9-10.7Q92 78.5 96 69.4 100 60.3 100 50q0-10.3-4-19.4-3.9-9.1-10.6-16-6.8-6.8-16-10.7Q60.5 0 50 0zm0 92.3q-8.8 0-16.5-3.3-7.7-3.3-13.4-9.1-5.8-5.8-9.1-13.5T7.7 50q0-8.7 3.3-16.4 3.3-7.7 9-13.5 5.8-5.7 13.5-9Q41.2 7.7 50 7.7t16.5 3.4q7.7 3.3 13.4 9Q85.7 26 89 33.6T92.3 50q0 8.7-3.3 16.4-3.3 7.7-9 13.5-5.8 5.8-13.5 9-7.7 3.4-16.5 3.4zM54 54v16.7q0 1.7-1.2 2-1.2.3-2.8.3-1.6 0-2.8-.3-1.2-.3-1.2-2V54H29.3q-1.6 0-2-1.2-.4-1.1-.4-2.8 0-1.7.4-2.8.4-1.1 2-1.1H46V29.3q0-1.7 1.2-2 1.2-.3 2.8-.3 1.6 0 2.8.3 1.2.3 1.2 2v16.8h16.8q1.5 0 2 1.1.3 1.1.3 2.8 0 1.7-.4 2.8-.4 1.2-2 1.2z"/></svg>